# xmcd
#
# Track frame offsets:
#	150
#	12131
#	32986
#	45979
#	58977
#	68614
#	79442
#	88886
#	100922
#	111074
#	125709
#	139945
#	152686
#	163747
#
# Disc length: 2359 seconds
#
# Revision: 0
# Processed by: cddbd v1.5.2PL0 Copyright (c) Steve Scherf et al.
# Submitted via: dBpowerAMP V4.0
#
DISCID=bf09350e
DTITLE=Kjell Fredriksson - Favoriter Vol.1
DYEAR=2006
DGENRE=Country
TTITLE0=Leende Guldbruna Ögon
TTITLE1=Anna och Mej
TTITLE2=Jag måste ge mig av
TTITLE3=Sista dansen
TTITLE4=I dont care just as long as you love me
TTITLE5=But I do
TTITLE6=This old heart
TTITLE7=Forever and ever
TTITLE8=Cotton fields
TTITLE9=Cold cold heart
TTITLE10=High fashion queen
TTITLE11=Jonny b goode
TTITLE12=Blue suede shoes
TTITLE13=Green green grass of home
EXTD=
EXTT0=
EXTT1=
EXTT2=
EXTT3=
EXTT4=
EXTT5=
EXTT6=
EXTT7=
EXTT8=
EXTT9=
EXTT10=
EXTT11=
EXTT12=
EXTT13=
PLAYORDER=
